# xmcd
#
# Track frame offsets:
#	150
#	17190
#	35861
#	50519
#	61782
#	77750
#	90960
#	117401
#	127387
#	140998
#	156435
#
# Disc length: 2343 seconds
#
# Revision: 1
# Processed by: cddbd v1.5.1PL2 Copyright (c) Steve Scherf et al.
# Submitted via: audiograbber 1.81.03
#
DISCID=a009250b
DTITLE=Jenny`Whiteley - Hopetown
DYEAR=2004
DGENRE=Folk
TTITLE0=Burning of Atlanta
TTITLE1=Hallelujah
TTITLE2=Halls of Folsom
TTITLE3=Needle In a Haystack
TTITLE4=Spin It Round
TTITLE5=No Reason Blues
TTITLE6=Circus Is In Town
TTITLE7=Drive Anywhere
TTITLE8=I Never Knew
TTITLE9=I Know How To Say Goodbye
TTITLE10=Day to Day
EXTD=
EXTT0=
EXTT1=
EXTT2=
EXTT3=
EXTT4=
EXTT5=
EXTT6=
EXTT7=
EXTT8=
EXTT9=
EXTT10=
PLAYORDER=
